name C:\Users\u0101727\Documents\MyRepositories\upper-imu-dc\Results\main_tracking\Case_42\kinematics.mot
datacolumns 10
datarows 52
range 2.00000000 2.51000000
endheader 
time	clav_prot	clav_elev	scapula_abduction	scapula_elevation	scapula_upward_rot	scapula_winging	plane_elv	shoulder_elv	axial_rot	
          2.00000000	        -25.44982031	          4.48916056	          9.13911355	         -4.42299619	         52.53515018	         -5.15911251	         61.37629240	         72.20475235	        -20.98248341	
          2.01000000	        -25.57313927	          4.54426571	          9.24823081	         -4.41574518	         52.94442902	         -5.21741756	         61.17751731	         72.52118874	        -20.80502743	
          2.02000000	        -25.70086528	          4.59266820	          9.34976383	         -4.41239163	         53.35159614	         -5.27319112	         60.97851562	         72.83600082	        -20.61454919	
          2.03000000	        -25.83258179	          4.63492128	          9.44390466	         -4.41251004	         53.75620202	         -5.32658176	         60.77942482	         73.14948671	        -20.41291139	
          2.04000000	        -25.96790511	          4.67162159	          9.53083861	         -4.41565536	         54.15786985	         -5.37775667	         60.58029091	         73.46188265	        -20.20228207	
          2.05000000	        -26.10648914	          4.70339475	          9.61074869	         -4.42137289	         54.55630600	         -5.42689897	         60.38107318	         73.77335234	        -19.98505629	
          2.06000000	        -26.24802419	          4.73087861	          9.68382290	         -4.42920887	         54.95130061	         -5.47420292	         60.18165295	         74.08398550	        -19.76375802	
          2.07000000	        -26.39223227	          4.75470613	          9.75026026	         -4.43872069	         55.34271933	         -5.51986809	         59.98184836	         74.39380471	        -19.54092209	
          2.08000000	        -26.53886175	          4.77549049	          9.81027234	         -4.44948538	         55.73048940	         -5.56409358	         59.78143616	         74.70277795	        -19.31896020	
          2.09000000	        -26.68768405	          4.79381466	          9.86407852	         -4.46110532	         56.11458384	         -5.60707365	         59.58017877	         75.01083308	        -19.10002041	
          2.10000000	        -26.83849383	          4.81022678	          9.91189527	         -4.47321030	         56.49500809	         -5.64899554	         59.37785312	         75.31787041	        -18.88585407	
          2.11000000	        -26.99111242	          4.82524242	          9.95392223	         -4.48545551	         56.87179136	         -5.69004009	         59.17427645	         75.62377097	        -18.67770707	
          2.12000000	        -27.14539251	          4.83935366	          9.99032875	         -4.49751503	         57.24498350	         -5.73038485	         58.96932428	         75.92839998	        -18.47625251	
          2.13000000	        -27.30122112	          4.85304378	         10.02124568	         -4.50907158	         57.61465586	         -5.77020892	         58.76293704	         76.23160728	        -18.28157840	
          2.14000000	        -27.45851784	          4.86680363	         10.04676552	         -4.51980479	         57.98090258	         -5.80969780	         58.55511395	         76.53322771	        -18.09323529	
          2.15000000	        -27.61722669	          4.88114417	         10.06695251	         -4.52938171	         58.34383910	         -5.84904611	         58.34589557	         76.83308440	        -17.91033617	
          2.16000000	        -27.77730253	          4.89660015	         10.08186084	         -4.53745298	         58.70359615	         -5.88845661	         58.13533895	         77.13099560	        -17.73168816	
          2.17000000	        -27.93869505	          4.91372305	         10.09155650	         -4.54365643	         59.06031022	         -5.92813550	         57.92349105	         77.42678359	        -17.55592994	
          2.18000000	        -28.10133468	          4.93306556	         10.09613699	         -4.54762669	         59.41411311	         -5.96828494	         57.71036619	         77.72028318	        -17.38165505	
          2.19000000	        -28.26512391	          4.95516227	         10.09574373	         -4.54900795	         59.76512330	         -6.00909516	         57.49593172	         78.01134777	        -17.20751253	
          2.20000000	        -28.42993544	          4.98051137	         10.09056492	         -4.54746666	         60.11344068	         -6.05073774	         57.28010350	         78.29985198	        -17.03228574	
          2.21000000	        -28.59561622	          5.00956058	         10.08082925	         -4.54270165	         60.45914417	         -6.09336106	         57.06275054	         78.58569210	        -16.85495354	
          2.22000000	        -28.76199543	          5.04269824	         10.06679255	         -4.53445105	         60.80229047	         -6.13708814	         56.84370796	         78.86878631	        -16.67473568	
          2.23000000	        -28.92889487	          5.08024822	         10.04871864	         -4.52249666	         61.14291232	         -6.18201625	         56.62279715	         79.14907581	        -16.49111910	
          2.24000000	        -29.09614165	          5.12246674	         10.02685544	         -4.50666722	         61.48101611	         -6.22821792	         56.39985245	         79.42652659	        -16.30385945	
          2.25000000	        -29.26358229	          5.16953886	         10.00140838	         -4.48684207	         61.81657925	         -6.27574277	         56.17475187	         79.70113063	        -16.11295513	
          2.26000000	        -29.43109692	          5.22157389	          9.97251471	         -4.46295548	         62.14954847	         -6.32461957	         55.94744773	         79.97290538	        -15.91859803	
          2.27000000	        -29.59861184	          5.27859973	          9.94022279	         -4.43500182	         62.47984011	         -6.37485842	         55.71799210	         80.24189013	        -15.72111035	
          2.28000000	        -29.76610858	          5.34055707	          9.90448035	         -4.40304043	         62.80734368	         -6.42645270	         55.48655254	         80.50813854	        -15.52087950	
          2.29000000	        -29.93362784	          5.40729482	          9.86513431	         -4.36719927	         63.13192865	         -6.47938071	         55.25341516	         80.77170809	        -15.31830322	
          2.30000000	        -30.10126716	          5.47856822	          9.82194315	         -4.32767616	         63.45345358	         -6.53360699	         55.01897404	         81.03264800	        -15.11375474	
          2.31000000	        -30.26917206	          5.55404078	          9.77460087	         -4.28473681	         63.77177640	         -6.58908317	         54.78370839	         81.29098762	        -14.90757367	
          2.32000000	        -30.43752178	          5.63329065	          9.72276968	         -4.23870919	         64.08676471	         -6.64574850	         54.54815007	         81.54672708	        -14.70008338	
          2.33000000	        -30.60651139	          5.71582132	          9.66611709	         -4.18997451	         64.39830503	         -6.70353040	         54.31284619	         81.79983135	        -14.49163033	
          2.34000000	        -30.77633348	          5.80107635	          9.60435158	         -4.13895541	         64.70631021	         -6.76234506	         54.07832234	         82.05022828	        -14.28263491	
          2.35000000	        -30.94716220	          5.88845711	          9.53725117	         -4.08610201	         65.01072460	         -6.82209896	         53.84505241	         82.29781057	        -14.07363933	
          2.36000000	        -31.11914229	          5.97734260	          9.46468084	         -4.03187699	         65.31152666	         -6.88269126	         53.61343890	         82.54244079	        -13.86533849	
          2.37000000	        -31.29238380	          6.06710965	          9.38659813	         -3.97674082	         65.60872998	         -6.94401729	         53.38380455	         82.78395779	        -13.65858509	
          2.38000000	        -31.46696232	          6.15715191	          9.30304888	         -3.92113822	         65.90238371	         -7.00597260	         53.15639329	         83.02218239	        -13.45436671	
          2.39000000	        -31.64292347	          6.24689613	          9.21415633	         -3.86548690	         66.19257349	         -7.06845720	         52.93137725	         83.25692091	        -13.25375781	
          2.40000000	        -31.82028977	          6.33581548	          9.12010684	         -3.81016850	         66.47942272	         -7.13137940	         52.70886728	         83.48796672	        -13.05785456	
          2.41000000	        -31.99906808	          6.42343994	          9.02113442	         -3.75552168	         66.76309278	         -7.19465922	         52.48892485	         83.71510118	        -12.86770359	
          2.42000000	        -32.17925601	          6.50936434	          8.91750573	         -3.70183688	         67.04378104	         -7.25823099	         52.27157425	         83.93809603	        -12.68423635	
          2.43000000	        -32.36084623	          6.59325404	          8.80950643	         -3.64935262	         67.32171570	         -7.32204505	         52.05681409	         84.15671822	        -12.50821723	
          2.44000000	        -32.54382829	          6.67484797	          8.69743012	         -3.59825371	         67.59714754	         -7.38606834	         51.84462695	         84.37073762	        -12.34020993	
          2.45000000	        -32.72818750	          6.75395870	          8.58157135	         -3.54867143	         67.87033953	         -7.45028361	         51.63498582	         84.57993659	        -12.18056406	
          2.46000000	        -32.91390079	          6.83046892	          8.46222387	         -3.50068600	         68.14155546	         -7.51468695	         51.42785593	         84.78412044	        -12.02942189	
          2.47000000	        -33.10093026	          6.90432445	          8.33968468	         -3.45433147	         68.41104936	         -7.57928377	         51.22319141	         84.98312731	        -11.88674381	
          2.48000000	        -33.28921553	          6.97552402	          8.21426260	         -3.40960259	         68.67905706	         -7.64408337	         51.02092735	         85.17683572	        -11.75234957	
          2.49000000	        -33.47866700	          7.04410738	          8.08628859	         -3.36646293	         68.94579117	         -7.70909320	         50.82096949	         85.36516887	        -11.62596981	
          2.50000000	        -33.66916225	          7.11014370	          7.95612366	         -3.32485283	         69.21143980	         -7.77431397	         50.62318475	         85.54809482	        -11.50730023	
          2.51000000	        -33.86054728	          7.17372277	          7.82416014	         -3.28469569	         69.47616843	         -7.83973683	         50.42739613	         85.72562312	        -11.39604965	
